<?xml version="1.0" encoding="UTF-8" standalone="no"?>
<!-- Created with Inkscape (http://www.inkscape.org/) -->

<svg
   xmlns:dc="http://purl.org/dc/elements/1.1/"
   xmlns:cc="http://creativecommons.org/ns#"
   xmlns:rdf="http://www.w3.org/1999/02/22-rdf-syntax-ns#"
   xmlns:svg="http://www.w3.org/2000/svg"
   xmlns="http://www.w3.org/2000/svg"
   version="1.1"
   width="1200"
   height="800"
   id="svg3029">
  <metadata
     id="metadata3039">
    <rdf:RDF>
      <cc:Work
         rdf:about="">
        <dc:format>image/svg+xml</dc:format>
        <dc:type
           rdf:resource="http://purl.org/dc/dcmitype/StillImage" />
        <dc:title></dc:title>
      </cc:Work>
    </rdf:RDF>
  </metadata>
  <defs
     id="defs3037" />
  <rect
     width="1200"
     height="800"
     x="0"
     y="0.00012207031"
     id="rect3031"
     style="fill:#005bbb" />
  <rect
     width="1200"
     height="400"
     x="0"
     y="400.00012"
     id="rect3033"
     style="fill:#ffd500" />
  <path
     d="m 99.476,36.57511 0,252.16742 c 0.0187,17.05014 9.98364,33.32396 26.71374,40.6759 l 93.00126,40.90768 93.00126,-40.90768 c 16.73009,-7.35194 26.69498,-23.62576 26.71374,-40.6759 l 0,-252.16742 -239.43,0 z"
     id="path2839"
     style="fill:#ffd500;fill-opacity:1" />
  <path
     d="m 103.10373,40.202851 0,246.685499 c 0.0183,16.67949 9.68111,32.59954 25.90423,39.79165 L 219.191,366.69837 309.37404,326.68 c 16.22312,-7.19211 25.88604,-23.11216 25.90423,-39.79165 l 0,-246.685499 -232.17454,0 z"
     id="path7710"
     style="fill:#005bbb" />
  <path
     d="m 219.191,58.341485 c -6.76229,7.673772 -10.88318,17.718735 -10.88318,28.744098 0.40073,24.208367 3.36987,48.367597 3.62773,72.568717 0.5368,22.5549 -6.22845,43.73935 -14.45423,64.40471 -2.74093,5.71064 -5.70581,11.30005 -8.67254,16.89492 l -8.72922,-1.75761 c -7.85457,-1.57056 -12.96369,-9.2088 -11.39333,-17.06491 1.37408,-6.87405 7.42329,-11.64744 14.17082,-11.67902 l 3.17426,0.34017 -7.08542,-59.18886 C 176.63,125.24657 163.03462,102.12725 143.00873,87.085583 c -3.44138,-2.584901 -7.08768,-4.948092 -10.88318,-7.030082 l 0,210.222469 48.52085,0 c 3.62796,19.69844 14.46697,36.85929 29.702,48.64374 3.6239,2.49816 6.65939,5.79297 8.8426,9.63802 2.18321,-3.84505 5.2187,-7.13986 8.84259,-9.63802 15.23504,-11.78445 26.07407,-28.9453 29.70201,-48.64374 l 48.52085,0 0,-210.222469 c -3.7955,2.08199 -7.4418,4.445181 -10.88318,7.030082 C 275.34738,102.12725 261.752,125.24657 259.43611,151.6037 l -7.08542,59.18886 3.17426,-0.34017 c 6.74753,0.0316 12.79675,4.80497 14.17082,11.67902 1.57036,7.85611 -3.53875,15.49435 -11.39333,17.06491 l -8.72922,1.75761 c -2.96672,-5.59487 -5.93161,-11.18428 -8.67254,-16.89492 -8.22578,-20.66536 -14.99103,-41.84981 -14.45423,-64.40471 0.25786,-24.20112 3.227,-48.36035 3.62772,-72.568717 0,-11.025363 -4.12088,-21.070326 -10.88317,-28.744098 z m -72.55455,51.988755 c 9.39052,11.02302 15.69271,24.75936 17.57182,39.85602 l 5.83836,48.81389 c -7.43423,3.70173 -13.07008,10.49289 -15.19111,18.70911 l -8.21907,0 0,-107.37902 z m 145.1091,0 0,107.37902 -8.21907,0 c -2.12102,-8.21622 -7.75688,-15.00738 -15.19111,-18.70911 l 5.83838,-48.81389 c 1.87909,-15.09666 8.18128,-28.833 17.5718,-39.85602 z M 219.191,208.468 c 3.89792,12.75159 9.2607,24.86005 15.92799,36.11437 -6.34165,1.92687 -11.86094,5.67487 -15.92799,10.71513 -4.06706,-5.04026 -9.58634,-8.78826 -15.92799,-10.71513 6.66727,-11.25432 12.03007,-23.36278 15.92799,-36.11437 z m -72.55455,23.75501 8.21907,0 c 2.5914,10.0163 10.40981,17.93046 20.34929,20.69333 l 6.97202,1.58743 c -1.86685,6.76904 -2.89083,13.90091 -2.89083,21.26046 l -32.64955,0 0,-43.54122 z m 136.89003,0 8.21907,0 0,43.54122 -32.64955,0 c 0,-7.35955 -1.02398,-14.49142 -2.89083,-21.26046 l 6.97202,-1.58743 c 9.93948,-2.76287 17.7579,-10.67703 20.34929,-20.69333 z m -87.17883,25.62581 c 8.80267,1.24438 15.5879,8.76939 15.5879,17.91541 l -18.13864,0 c 0,-6.2215 0.92143,-12.21712 2.55074,-17.91541 z m 45.6867,0 c 1.62931,5.69829 2.55076,11.69391 2.55076,17.91541 l -18.13866,0 c 0,-9.14602 6.78523,-16.67103 15.5879,-17.91541 z m -46.59363,32.42915 16.49483,0 0,30.55816 c -8.00508,-8.37027 -13.82021,-18.88058 -16.49483,-30.55816 z m 31.00573,0 16.49483,0 c -2.67461,11.67758 -8.48977,22.18789 -16.49483,30.55816 l 0,-30.55816 z"
     id="path7306"
     style="fill:#ffd500" />
</svg>
