<?xml version="1.0" encoding="UTF-8"?>
<svg width="150px" height="45px" viewBox="0 0 150 45" version="1.1" xmlns="http://www.w3.org/2000/svg" xmlns:xlink="http://www.w3.org/1999/xlink">
    <title>CI-IS - RGB_E</title>
    <g id="Homepage" stroke="none" stroke-width="1" fill="none" fill-rule="evenodd">
        <g id="Homepage_1440" transform="translate(-946.000000, -670.000000)" fill-rule="nonzero">
            <g id="Our-Businesses" transform="translate(72.000000, 581.000000)">
                <g id="Logos" transform="translate(48.000000, 89.000000)">
                    <g id="CI-IS---RGB_E" transform="translate(826.000000, 0.000000)">
                        <path d="M44.972449,44.9908163 L0.890816327,44.9908163 L0.890816327,0.909183673 L44.972449,0.909183673 L44.972449,44.9908163 Z M3.18673469,42.722449 L42.6765306,42.722449 L42.6765306,3.23265306 L3.18673469,3.23265306 L3.18673469,42.722449 Z" id="Shape" fill="#741545"></path>
                        <rect id="Rectangle" fill="#741545" x="32.0234694" y="11.6173469" width="4.16020408" height="22.8214286"></rect>
                        <path d="M24.4193878,29.0112245 L24.4193878,29.0112245 C23.2331167,29.8396154 21.8160977,30.2733967 20.3693878,30.2510204 C17.1236558,30.3185961 14.2183486,28.2479132 13.2232046,25.1577626 C12.2280606,22.067612 13.3790252,18.690658 16.0542319,16.8514702 C18.7294385,15.0122824 22.2946045,15.146926 24.8234694,17.1826531 L28.4510204,14.1520408 C24.8630079,10.787623 19.5911427,9.93973653 15.1291456,12.0094524 C10.6671486,14.0791683 7.90950852,18.6515741 8.1606564,23.5638104 C8.41180427,28.4760468 11.6213929,32.7433662 16.2712087,34.3472225 C20.9210244,35.9510787 26.0789267,34.5699496 29.305102,30.8571429 C29.2040816,30.7193878 26.8163265,27.1377551 24.4193878,29.0112245 Z" id="Path" fill="#741545"></path>
                        <polygon id="Path" fill="#4D4E4E" points="53.8806122 22.6928571 53.8806122 12.5908163 55.8826531 12.5908163 55.8826531 22.6928571"></polygon>
                        <path d="M67.4540816,22.8581633 L63.0826531,18.0918367 C62.3755102,17.3204082 61.594898,16.3928571 60.9612245,15.6489796 L60.9612245,15.6489796 C60.9612245,16.4755102 60.9612245,17.2836735 60.9612245,17.9816327 L60.9612245,22.6744898 L59.005102,22.6744898 L59.005102,12.572449 L60.5479592,12.572449 L64.4510204,16.8428571 C64.9928571,17.4306122 65.8193878,18.3489796 66.3520408,19.0285714 L66.3520408,19.0285714 C66.3520408,18.3306122 66.3520408,17.577551 66.3520408,16.8887755 L66.3520408,12.572449 L68.3081633,12.572449 L68.3081633,22.8581633 L67.4540816,22.8581633 Z" id="Path" fill="#4D4E4E"></path>
                        <path d="M75.6826531,22.8122449 L74.4795918,22.8122449 L70.622449,12.572449 L72.6428571,12.572449 L74.3693878,17.2193878 C74.6265306,17.8989796 74.8928571,18.7255102 75.1316327,19.5336735 L75.1316327,19.5336735 C75.3520408,18.7438776 75.627551,17.9173469 75.8755102,17.2193878 L77.6112245,12.572449 L79.5122449,12.572449 L75.6826531,22.8122449 Z" id="Path" fill="#4D4E4E"></path>
                        <polygon id="Path" fill="#4D4E4E" points="81.8265306 22.6928571 81.8265306 12.5908163 87.4744898 12.5908163 87.4744898 14.2530612 83.8010204 14.2530612 83.8010204 16.7969388 86.85 16.7969388 86.85 18.477551 83.8010204 18.477551 83.8010204 21.0489796 87.9704082 21.0489796 87.9704082 22.7112245"></polygon>
                        <path d="M92.9204082,22.8122449 C91.9748145,22.8298925 91.0419951,22.5919284 90.2204082,22.1234694 L90.0091837,20.1765306 C90.843299,20.7707396 91.8411861,21.0916036 92.8653061,21.094898 C93.8479592,21.094898 94.5,20.6081633 94.5,19.8459184 C94.5,19.0836735 94.0591837,18.6704082 92.9938776,18.3489796 C91.1571429,17.7979592 90.1836735,16.7785714 90.1836735,15.2908163 C90.1836735,13.8030612 91.3316327,12.4163265 93.4897959,12.4163265 C94.3119522,12.4041065 95.12385,12.5999729 95.85,12.9857143 L95.4734694,14.6204082 C94.889386,14.28013 94.2297193,14.090752 93.5540816,14.0693878 C92.6357143,14.0693878 92.1030612,14.5744898 92.1030612,15.1806122 C92.1030612,15.7867347 92.5806122,16.144898 93.5081633,16.4295918 C95.344898,17.0081633 96.5020408,17.8897959 96.5020408,19.6897959 C96.5020408,21.4897959 95.2622449,22.8122449 92.9204082,22.8122449 Z" id="Path" fill="#4D4E4E"></path>
                        <polygon id="Path" fill="#4D4E4E" points="103.040816 14.2346939 103.040816 22.6928571 101.038776 22.6928571 101.038776 14.2346939 97.9622449 14.2346939 97.9622449 12.572449 106.117347 12.572449 106.117347 14.2346939"></polygon>
                        <path d="M117.45,22.6928571 L117.082653,18.5418367 C117.036735,17.9173469 116.972449,17.155102 116.954082,16.4571429 L116.954082,16.4571429 C116.678571,17.1459184 116.265306,17.9632653 115.953061,18.5877551 L113.822449,22.7571429 L113.05102,22.7571429 L110.892857,18.5877551 C110.571429,17.9632653 110.204082,17.1734694 109.90102,16.4755102 L109.90102,16.4755102 C109.90102,17.1918367 109.818367,17.9632653 109.772449,18.5418367 L109.405102,22.6928571 L107.568367,22.6928571 L108.440816,12.5908163 L109.928571,12.5908163 L112.389796,17.3204082 C112.757143,18.0183673 113.234694,18.9734694 113.528571,19.6989796 L113.528571,19.6989796 C113.813265,18.9826531 114.254082,18.0642857 114.639796,17.3204082 L117.045918,12.5908163 L118.478571,12.5908163 L119.396939,22.6928571 L117.45,22.6928571 Z" id="Path" fill="#4D4E4E"></path>
                        <polygon id="Path" fill="#4D4E4E" points="122.014286 22.6928571 122.014286 12.5908163 127.662245 12.5908163 127.662245 14.2530612 123.988776 14.2530612 123.988776 16.7969388 127.037755 16.7969388 127.037755 18.477551 123.988776 18.477551 123.988776 21.0489796 128.158163 21.0489796 128.158163 22.7112245"></polygon>
                        <path d="M138.765306,22.8581633 L134.403061,18.0918367 C133.686735,17.3204082 132.915306,16.3928571 132.281633,15.6489796 L132.281633,15.6489796 C132.281633,16.4755102 132.281633,17.2836735 132.281633,17.9816327 L132.281633,22.6744898 L130.32551,22.6744898 L130.32551,12.572449 L131.868367,12.572449 L135.771429,16.8428571 C136.304082,17.4306122 137.130612,18.3489796 137.672449,19.0285714 L137.672449,19.0285714 C137.672449,18.3306122 137.672449,17.577551 137.672449,16.8887755 L137.672449,12.572449 L139.619388,12.572449 L139.619388,22.8581633 L138.765306,22.8581633 Z" id="Path" fill="#4D4E4E"></path>
                        <polygon id="Path" fill="#4D4E4E" points="146.80102 14.2346939 146.80102 22.6928571 144.79898 22.6928571 144.79898 14.2346939 141.722449 14.2346939 141.722449 12.572449 149.877551 12.572449 149.877551 14.2346939"></polygon>
                        <path d="M55.5887755,34.255102 C54.9431191,34.2673244 54.3069123,34.0987296 53.7520408,33.7683673 L53.6234694,32.6204082 C54.2105756,33.0557946 54.9221337,33.2908342 55.6530612,33.2908163 C56.4336735,33.2908163 56.9571429,32.8591837 56.9571429,32.2163265 C56.9571429,31.5734694 56.5806122,31.1877551 55.7357143,30.9214286 C54.4591837,30.5081633 53.7887755,29.8561224 53.7887755,28.8091837 C53.7997125,28.2401331 54.0523349,27.7026344 54.4834788,27.3310795 C54.9146227,26.9595246 55.4835314,26.7890372 56.0479592,26.8622449 C56.5971672,26.8479731 57.138962,26.9913894 57.6091837,27.2755102 L57.3887755,28.1938776 C56.9727414,27.9325163 56.4932768,27.7896295 56.0020408,27.7806122 C55.726002,27.744454 55.4470956,27.8217351 55.2290304,27.9948028 C55.0109652,28.1678704 54.8723681,28.4219412 54.844898,28.6989796 C54.844898,29.2316327 55.2306122,29.5438776 55.9836735,29.7918367 C57.2234694,30.2142857 58.0683673,30.8020408 58.0683673,32.0877551 C58.0683673,33.3734694 57.205102,34.255102 55.5887755,34.255102 Z" id="Path" fill="#4D4E4E"></path>
                        <polygon id="Path" fill="#4D4E4E" points="63.0091837 34.1908163 63.0091837 26.9357143 66.9214286 26.9357143 66.9214286 27.8540816 64.1112245 27.8540816 64.1112245 30.0489796 66.4622449 30.0489796 66.4622449 30.9673469 64.1112245 30.9673469 64.1112245 33.1897959 67.3163265 33.1897959 67.3163265 34.1081633"></polygon>
                        <path d="M76.077551,34.1908163 L73.7908163,31.0040816 L72.9642857,31.0040816 L72.9642857,34.1908163 L71.8714286,34.1908163 L71.8714286,26.9357143 L74.0571429,26.9357143 C74.6207876,26.9030552 75.173249,27.1024532 75.5861109,27.4875597 C75.9989728,27.8726662 76.2362747,28.4099381 76.2428571,28.9744898 C76.249323,29.7953103 75.7379138,30.5311509 74.9663265,30.8112245 L77.4459184,34.1632653 L76.077551,34.1908163 Z M73.8642857,27.8908163 L72.9459184,27.8908163 L72.9459184,30.094898 L73.8642857,30.094898 C74.2919765,30.1502275 74.713058,29.9531058 74.9444987,29.5892158 C75.1759393,29.2253258 75.1759393,28.7603885 74.9444987,28.3964985 C74.713058,28.0326085 74.2919765,27.8354868 73.8642857,27.8908163 Z" id="Shape" fill="#4D4E4E"></path>
                        <path d="M83.8469388,34.3010204 L83.4887755,34.3010204 L80.5959184,26.9540816 L81.7622449,26.9540816 L83.1030612,30.4163265 C83.2959184,30.9122449 83.5163265,31.527551 83.7091837,32.1428571 L83.7091837,32.1428571 C83.9020408,31.5367347 84.1132653,30.9397959 84.3153061,30.4163265 L85.6561224,26.9540816 L86.7030612,26.9540816 L83.8469388,34.3010204 Z" id="Path" fill="#4D4E4E"></path>
                        <polygon id="Path" fill="#4D4E4E" points="91.5612245 34.1908163 91.5612245 26.9357143 92.6632653 26.9357143 92.6632653 34.1908163"></polygon>
                        <path d="M103.5,28.3132653 C102.939271,27.999152 102.305941,27.837653 101.663265,27.844898 C100.141664,27.844898 98.9081633,29.0783992 98.9081633,30.6 C98.9081633,32.1216008 100.141664,33.355102 101.663265,33.355102 C102.301329,33.3827094 102.935252,33.2400768 103.5,32.9418367 L103.39898,33.9428571 C102.811102,34.2167198 102.163304,34.3367995 101.516327,34.2918367 C99.4748454,34.2918367 97.819898,32.6368893 97.819898,30.5954082 C97.819898,28.553927 99.4748454,26.8989796 101.516327,26.8989796 C102.251652,26.8736978 102.981427,27.0348168 103.637755,27.3673469 L103.5,28.3132653 Z" id="Path" fill="#4D4E4E"></path>
                        <polygon id="Path" fill="#4D4E4E" points="108.642857 34.1908163 108.642857 26.9357143 112.555102 26.9357143 112.555102 27.8540816 109.744898 27.8540816 109.744898 30.0489796 112.132653 30.0489796 112.132653 30.9673469 109.744898 30.9673469 109.744898 33.1897959 112.95 33.1897959 112.95 34.1081633"></polygon>
                        <path d="M119.259184,34.255102 C118.613704,34.2658669 117.977889,34.0973759 117.422449,33.7683673 L117.303061,32.6204082 C117.885799,33.057467 118.595047,33.2928084 119.323469,33.2908163 C120.113265,33.2908163 120.636735,32.8591837 120.636735,32.2163265 C120.636735,31.5734694 120.260204,31.1877551 119.406122,30.9214286 C118.129592,30.5081633 117.459184,29.8561224 117.459184,28.8091837 C117.470121,28.2401331 117.722743,27.7026344 118.153887,27.3310795 C118.585031,26.9595246 119.15394,26.7890372 119.718367,26.8622449 C120.267757,26.8464104 120.809985,26.9899415 121.279592,27.2755102 L121.068367,28.1938776 C120.648531,27.9334556 120.166392,27.7907172 119.672449,27.7806122 C119.39641,27.744454 119.117504,27.8217351 118.899439,27.9948028 C118.681373,28.1678704 118.542776,28.4219412 118.515306,28.6989796 C118.515306,29.2316327 118.90102,29.5438776 119.654082,29.7918367 C120.893878,30.2142857 121.738776,30.8020408 121.738776,32.0877551 C121.738776,33.3734694 120.87551,34.255102 119.259184,34.255102 Z" id="Path" fill="#4D4E4E"></path>
                    </g>
                </g>
            </g>
        </g>
    </g>
</svg>