<svg xmlns="http://www.w3.org/2000/svg" width="162.2" height="47.97" viewBox="0 0 162.2 47.97" overflow="visible"><style>.st0{fill:#741545}.st1{fill:#4d4e4e}</style><path class="st0" d="M47.97 47.97H0V0h47.97v47.97zm-45.5-2.46h43.04V2.47H2.47v43.04z"/><path class="st0" d="M25.59 30.59c-1.28.89-2.72 1.35-4.4 1.35-4.39 0-7.95-3.56-7.95-7.95s3.56-7.95 7.95-7.95c1.83 0 3.5.63 4.84 1.66l3.95-3.3c-2.35-2.19-5.49-3.55-8.95-3.55-7.25 0-13.13 5.88-13.13 13.13s5.88 13.13 13.13 13.13c3.95 0 7.48-1.75 9.89-4.52-.12-.14-2.72-4.04-5.33-2zm8.28-18.94h4.53V36.5h-4.53z"/><path class="st1" d="M57.67 23.71V12.69h2.18v11.02h-2.18zm14.78.17L67.7 18.7c-.78-.85-1.62-1.85-2.31-2.66l-.03.02c.03.9.03 1.78.03 2.54v5.11h-2.12V12.69h1.68l4.25 4.65c.59.64 1.49 1.64 2.07 2.38l.03-.02c-.03-.76-.03-1.59-.03-2.33v-4.68h2.12v11.2h-.94zm8.96-.05h-1.36l-4.2-11.14h2.25l1.88 5.06c.28.74.57 1.64.83 2.52h.03c.24-.86.54-1.76.81-2.52l1.88-5.06h2.07l-4.19 11.14zm6.67-.12V12.69h6.15v1.81h-3.99v2.76h3.32v1.83h-3.32v2.8h4.54v1.82h-6.7zm12.1.12c-1.21 0-2.33-.35-2.94-.74l-.22-2.12c.85.62 1.97 1.03 3.11 1.03 1.07 0 1.78-.54 1.78-1.36 0-.83-.48-1.28-1.64-1.62-2.06-.61-3.06-1.71-3.06-3.33 0-1.68 1.24-3.13 3.59-3.13 1.16 0 2.14.34 2.57.62l-.42 1.78c-.42-.26-1.28-.61-2.09-.61-1.02 0-1.57.55-1.57 1.21 0 .67.52 1.05 1.52 1.37 1.99.62 3.26 1.59 3.26 3.54.01 2.01-1.34 3.36-3.89 3.36zm11.02-9.33v9.21h-2.18V14.5h-3.35v-1.81h8.88v1.81h-3.35zm15.69 9.21l-.4-4.53c-.05-.67-.12-1.5-.14-2.26h-.03c-.29.74-.74 1.64-1.09 2.31l-2.31 4.54h-.85l-2.35-4.54c-.35-.67-.74-1.54-1.07-2.3h-.03c-.02.78-.09 1.62-.14 2.25l-.4 4.53h-1.99l.95-11.02h1.62l2.68 5.15c.4.76.92 1.8 1.24 2.59h.03c.31-.78.79-1.78 1.21-2.59l2.63-5.15h1.56l.98 11.02h-2.1zm4.97 0V12.69h6.15v1.81h-3.99v2.76h3.32v1.83h-3.32v2.8h4.54v1.82h-6.7zm18.21.17l-4.75-5.18c-.78-.85-1.62-1.85-2.31-2.66l-.03.02c.03.9.03 1.78.03 2.54v5.11h-2.12V12.69h1.68l4.25 4.65c.59.64 1.49 1.64 2.07 2.38l.03-.02c-.03-.76-.03-1.59-.03-2.33v-4.68H151v11.2h-.93zm8.78-9.38v9.21h-2.18V14.5h-3.35v-1.81h8.88v1.81h-3.35zM59.53 36.29c-.84 0-1.6-.25-2.01-.52l-.14-1.25c.57.43 1.37.73 2.21.73.85 0 1.42-.47 1.42-1.18 0-.72-.41-1.12-1.34-1.41-1.39-.45-2.12-1.15-2.12-2.29 0-1.09.81-2.12 2.47-2.12.77 0 1.41.24 1.7.45l-.24 1.01c-.28-.2-.88-.46-1.51-.46-.78 0-1.26.48-1.26 1.04 0 .57.42.92 1.24 1.19 1.35.46 2.27 1.09 2.27 2.49 0 1.38-.93 2.32-2.69 2.32zm8.08-.06v-7.91h4.26v1.03h-3.06v2.39h2.56v1.03h-2.56v2.43h3.49v1.03h-4.69zm14.23 0l-2.49-3.47h-.9v3.47h-1.19v-7.91h2.38c1.11 0 2.38.72 2.38 2.22 0 1.05-.62 1.72-1.39 2.03l2.7 3.66h-1.49zm-2.41-6.86h-.98v2.4h.98c.71 0 1.36-.37 1.36-1.2 0-.82-.66-1.2-1.36-1.2zm10.87 6.97h-.38l-3.15-8.02h1.26l1.46 3.77c.21.54.45 1.21.66 1.88h.02c.21-.66.43-1.31.66-1.88l1.46-3.77h1.14l-3.13 8.02zm8.4-.11v-7.91h1.2v7.91h-1.2zm13-6.4c-.38-.25-1.15-.51-1.96-.51-1.51 0-3.11.98-3.11 2.99 0 2 1.56 2.97 3.11 2.97.92 0 1.54-.17 2.02-.45l-.11 1.09c-.49.26-1.05.37-2.04.37-1.96 0-4.19-1.36-4.19-4.02 0-2.69 2.25-4.03 4.19-4.03 1.07 0 1.82.24 2.3.51l-.21 1.08zm5.6 6.4v-7.91h4.26v1.03h-3.06v2.39h2.56v1.03h-2.56v2.43h3.49v1.03h-4.69zm11.56.06c-.84 0-1.6-.25-2.01-.52l-.14-1.25c.57.43 1.37.73 2.21.73.85 0 1.42-.47 1.42-1.18 0-.72-.41-1.12-1.34-1.41-1.39-.45-2.12-1.15-2.12-2.29 0-1.09.81-2.12 2.47-2.12.77 0 1.41.24 1.7.45l-.24 1.01c-.28-.2-.88-.46-1.51-.46-.78 0-1.26.48-1.26 1.04 0 .57.42.92 1.24 1.19 1.35.46 2.27 1.09 2.27 2.49 0 1.38-.93 2.32-2.69 2.32z"/></svg>